# xmcd
#
# Track frame offsets: 
#        150
#        10097
#        20153
#        31703
#        41978
#        52780
#        63707
#        74528
#        84053
#        95024
#        105729
#        116549
#        130199
#        139484
#        150780
#        160516
#        172653
#        183920
#        194594
#        204300
#        215746
#        232679
#        243629
#        255692
#        265048
#
# Disc length: 3667 seconds
#
# Revision: 0
# Processed by: cddbd v1.5.2PL0 Copyright (c) Steve Scherf et al.
# Submitted via: ExactAudioCopy v1.0b3
#
DISCID=4d0e5119
DTITLE=Reno and Smiley and The Tennessee Cut-Ups - Reno and Smiley 1959-63 C
DTITLE=D2
DYEAR=2011
DGENRE=Bluegrass
TTITLE0=Lee's March
TTITLE1=Follow The Leader
TTITLE2=Double Eagle
TTITLE3=Carry Me Back To Old Virginia
TTITLE4=Washington And Lee Swing
TTITLE5=Goodbye Liza Jane
TTITLE6=Flop Eared Mule
TTITLE7=The World Is Waiting For The Sunrise
TTITLE8=Ho-Dancin' Bully Of The Town
TTITLE9=Buffalo Gal
TTITLE10=Speedin' (John Hardy)
TTITLE11=Sweet Thing
TTITLE12=I'm Just A Used To Be To You
TTITLE13=That Moon Is No Stopping Place For Me
TTITLE14=Higher
TTITLE15=Jimmy Caught The Dickens (Pushing Ernest In The Tub)
TTITLE16=Just Doing Rock And Roll
TTITLE17=Gettysburg Recalled
TTITLE18=Stonewall Brigade
TTITLE19=V.M.I.'s Gallant Hour
TTITLE20=Battle Of Atlanta
TTITLE21=Antietam
TTITLE22=Shiloh
TTITLE23=Jeb's Black Horse Brigade
TTITLE24=Virginia's Heritage
EXTD=
EXTT0=
EXTT1=
EXTT2=
EXTT3=
EXTT4=
EXTT5=
EXTT6=
EXTT7=
EXTT8=
EXTT9=
EXTT10=
EXTT11=
EXTT12=
EXTT13=
EXTT14=
EXTT15=
EXTT16=
EXTT17=
EXTT18=
EXTT19=
EXTT20=
EXTT21=
EXTT22=
EXTT23=
EXTT24=
PLAYORDER=
